<svg xmlns="http://www.w3.org/2000/svg" xmlns:xlink="http://www.w3.org/1999/xlink" viewBox="0,0,256,256" width="48px" height="48px" fill-rule="nonzero"><g fill="none" fill-rule="nonzero" stroke="none" stroke-width="none" stroke-linecap="none" stroke-linejoin="none" stroke-miterlimit="10" stroke-dasharray="" stroke-dashoffset="0" font-family="none" font-weight="none" font-size="none" text-anchor="none" style="mix-blend-mode: normal"><g transform="scale(5.33333,5.33333)"><path d="M37.8,45.7l-8.7,-6.3c-0.3,-0.3 -0.8,-0.3 -1.2,0l-8.7,6.3c-1.3,1 -3.2,0 -3.2,-1.6v-31.1c0,-1.1 0.9,-2 2,-2h21c1.1,0 2,0.9 2,2v31.1c0,1.6 -1.8,2.6 -3.2,1.6z" fill="#f5484a" stroke="none" stroke-width="1" stroke-linecap="butt" stroke-linejoin="miter"></path><path d="M27.3,36.9l-2.7,-2c-0.3,-0.3 -0.8,-0.3 -1.2,0l-8.7,6.3c-1.3,1 -3.2,0 -3.2,-1.6v-17.3" fill="none" stroke="#18193f" stroke-width="3" stroke-linecap="round" stroke-linejoin="round"></path><path d="M11.5,16.4v-8c0,-1.1 0.9,-2 2,-2h21c1.1,0 2,0.9 2,2v31.1c0,1.6 -1.8,2.6 -3.2,1.6l-2,-1.4" fill="none" stroke="#18193f" stroke-width="3" stroke-linecap="round" stroke-linejoin="round"></path></g></g></svg>